<svg enable-background="new 0 0 77 66.1" viewBox="0 0 77 66.1" xmlns="http://www.w3.org/2000/svg"><path d="m 76.5 9.6 c -.4 -.6 -1.1 -.9 -1.8 -.9 h -58.2 l -1.7 -7.1 c -.3 -1 -1.2 -1.6 -2.2 -1.6 h -10.3 c -1.2 0 -2.3 1 -2.3 2.3 s 1.1 2.3 2.3 2.3 h 8.5 l 12.2 50.6 c .2 1.1 1.1 1.7 2.2 1.7 h 3 c -1.2 .9 -2.1 2.4 -2.1 4.1 0 2.8 2.3 5.1 5.1 5.1 s 5.1 -2.3 5.1 -5.1 c 0 -1.7 -.9 -3.1 -2.1 -4.1 h 20.5 c -1.2 .9 -2.1 2.4 -2.1 4.1 0 2.8 2.3 5.1 5.1 5.1 s 5.1 -2.3 5.1 -5.1 c 0 -1.7 -.9 -3.1 -2.1 -4.1 h 1.5 c 1.2 0 2.3 -1 2.3 -2.3 0 -1.2 -1.1 -2.3 -2.3 -2.3 h -35.2 l -1.3 -5.3 h 40.9 c 1.1 0 1.9 -.7 2.2 -1.7 l 8.2 -33.8 c .1 -.6 -.1 -1.4 -.5 -1.9 z m -37.5 21.7 l -.8 -6.7 h 13.1 l -.8 6.7 z m 10.9 4.5 l -.8 6.7 h -8.8 l -.8 -6.7 z m -29.6 -11.2 h 13.4 l .8 6.7 h -12.6 z m 17.3 -4.6 l -.8 -6.7 h 15.8 l -.8 6.7 z m -5.3 -6.7 l .8 6.7 h -14 l -1.6 -6.7 z m -9.4 22.5 h 12 l .8 6.7 h -11.1 z m 30.8 6.8 l .8 -6.7 h 11.9 l -1.6 6.7 z m 13.8 -11.3 h -12.5 l .8 -6.7 h 13.3 z m 2.7 -11.3 h -13.9 l .8 -6.7 h 14.7 z" fill="#fff"/></svg>